<?xml version="1.0" encoding="UTF-8"?>
<svg id="Warstwa_1" xmlns="http://www.w3.org/2000/svg" version="1.1" viewBox="0 0 1180 280">
  <!-- Generator: Adobe Illustrator 29.0.0, SVG Export Plug-In . SVG Version: 2.1.0 Build 186)  -->
  <defs>
    <style>
      .st0 {
        fill: #ea5821;
      }

      .st1 {
        fill: #010101;
      }
    </style>
  </defs>
  <g id="Gruppe_189">
    <path id="Pfad_294" class="st0" d="M84.8,181.2l139-11.2v-23.1s-139.1,14.1-139.1,14.1v20.3Z"/>
    <path id="Pfad_295" class="st0" d="M84.9,270h139c0-.1,0-28.9,0-28.9l-139,2.7v26.3Z"/>
    <path id="Pfad_296" class="st0" d="M84.9,223.7l139-5.5v-26.8s-139.1,8.4-139.1,8.4v24Z"/>
    <path id="Pfad_297" class="st0" d="M21.4,95l202.4-40.4v-16.3S21.4,82.7,21.4,82.7v12.3Z"/>
    <path id="Pfad_298" class="st0" d="M21.3,62.4v10S223.7,24,223.7,24v-14S21.3,62.4,21.3,62.4Z"/>
    <path id="Pfad_299" class="st0" d="M21.4,121.3l202.4-32.4v-18S21.4,107.6,21.4,107.6v13.7Z"/>
    <path id="Pfad_300" class="st0" d="M21.4,151.5l202.4-24.4v-20.6s-202.4,28.7-202.4,28.7v16.3Z"/>
  </g>
  <path class="st1" d="M679.9,206.6c-13.7,0-24.8-4.4-33.4-13.4-8.6-8.9-12.9-20.4-12.9-34.5,0-7.1,1.1-13.6,3.4-19.5,2.3-5.9,5.5-11,9.6-15.3,4.1-4.3,9.1-7.6,14.8-10,5.7-2.4,12-3.6,18.8-3.6s13.1,1.2,18.8,3.5c5.7,2.4,10.6,5.7,14.7,9.9,4.1,4.3,7.3,9.4,9.6,15.3,2.3,5.9,3.5,12.4,3.5,19.5s-1.1,13.4-3.4,19.3c-2.3,5.9-5.5,11-9.6,15.2-4.1,4.2-9.1,7.5-14.9,9.9-5.8,2.4-12.1,3.6-18.9,3.6ZM679.9,190.2c8.3,0,14.9-2.8,19.9-8.4,5-5.6,7.5-13.1,7.5-22.6v-.8c0-9.7-2.4-17.4-7.3-23.1-4.9-5.7-11.4-8.6-19.7-8.6-8.3,0-14.9,2.9-19.8,8.6-4.9,5.7-7.4,13.4-7.4,23.2v.8c0,9.5,2.4,17,7.2,22.6,4.8,5.6,11.3,8.4,19.6,8.4Z"/>
  <path class="st1" d="M760.6,111.9v17.1c1.3-5.4,4-9.7,8.2-13,4.1-3.3,10.4-4.9,18.8-4.9h3s0,18.9,0,18.9h-8.9c-8.3,0-13.9,2.2-16.7,6.5-2.9,4.3-4.3,11.2-4.3,20.7v47.7s-19.3,0-19.3,0v-93c0,0,19.2,0,19.2,0Z"/>
  <path class="st1" d="M896.8,207.2c-9.5,0-18.1-1.6-25.8-4.9-7.8-3.3-14.4-7.9-19.9-13.8-5.5-5.9-9.8-13.1-12.8-21.5-3-8.4-4.5-17.6-4.6-27.6s1.5-19.2,4.6-27.6c3.1-8.4,7.4-15.6,12.9-21.5,5.5-5.9,12.2-10.5,20.2-13.8,7.9-3.3,16.7-4.9,26.3-4.9,9.5,0,18.1,1.6,25.8,4.9,7.8,3.3,14.4,7.9,19.9,13.8,5.5,5.9,9.8,13.1,12.8,21.5,3,8.4,4.5,17.6,4.6,27.6s-1.5,19.2-4.6,27.6c-3.1,8.4-7.4,15.6-12.9,21.5-5.5,5.9-12.2,10.5-20.2,13.8-7.9,3.3-16.7,4.9-26.3,4.9ZM897,189.5c13.3,0,23.8-4.4,31.6-13.2,7.8-8.8,11.7-21,11.7-36.5v-1c0-15.2-3.9-27.3-11.6-36.2-7.7-8.9-18.1-13.3-31.2-13.3-13.3,0-23.8,4.4-31.6,13.2-7.8,8.8-11.7,20.9-11.7,36.3v1c0,15.2,3.9,27.3,11.6,36.2,7.7,8.9,18.1,13.4,31.2,13.4Z"/>
  <path class="st1" d="M995,111.8v17.5c2.5-6.2,6.1-11,10.8-14.4,4.7-3.4,10.6-5.1,17.7-5.1,10,0,17.9,3.3,23.7,9.9,5.8,6.6,8.7,16.1,8.7,28.5v56.6s-19.5,0-19.5,0v-55.6c0-7.2-1.6-12.7-4.7-16.5-3.1-3.8-7.8-5.7-14.1-5.7s-12.6,2.9-16.6,8.7c-4,5.8-6,14-6,24.6v44.5s-19.3,0-19.3,0v-87.7c0,0,19.2-5.3,19.2-5.3Z"/>
  <path class="st1" d="M1115.3,206.3c-14.2,0-25.5-4.3-33.8-13.1-8.4-8.7-12.5-20.2-12.5-34.4,0-7.1,1.1-13.7,3.4-19.7,2.3-6,5.4-11.2,9.4-15.5,4-4.3,8.8-7.6,14.4-10,5.6-2.4,11.7-3.6,18.2-3.6,13.7,0,24.4,4.3,32.1,12.9,7.8,8.6,11.6,20.2,11.7,34.8v7.1s-69.9,0-69.9,0c.5,7.9,3.2,14.1,8,18.7s11.1,6.9,19,6.9c7.9,0,13.8-1.7,17.7-5,3.9-3.4,6.8-7.3,8.5-11.7l17.1,6.7c-3.1,7.1-8.2,13.2-15.2,18.2-7,5.1-16.3,7.6-28.2,7.6ZM1114.1,125.9c-7,0-12.8,2.2-17.6,6.6-4.8,4.4-7.6,10.3-8.6,17.8h50.4c-.4-7.9-2.7-14-7-18.2-4.3-4.2-10-6.3-17.2-6.3Z"/>
  <polygon class="st1" points="462.2 79.1 462.3 205.2 481.9 205.2 481.8 71.1 462.2 79.1"/>
  <polygon class="st1" points="503.7 79.1 503.8 205.2 523.3 205.1 523.2 71 503.7 79.1"/>
  <path class="st1" d="M426.1,205.2h20.9s-48-130.8-48-130.8h-23.1s-49.2,130.9-49.2,130.9h20.3s11.8-32.3,11.8-32.3h55.7s11.5,32.2,11.5,32.2ZM364.8,156.6l22.1-60.7,21.7,60.7h-43.8Z"/>
  <path class="st1" d="M616.8,135.5"/>
  <path class="st1" d="M628.8,114.3h-17s0-10.3,0-10.3c0-13.8.4-14.2,14-14.2h13.4s8.2-17.7,8.2-17.7h-26.2c-12.5,0-19.4,3.1-23,7.7-3.7,4.6-5.5,12.2-5.5,22.9v11.7s-13.3,0-13.3,0v16.6s13.3,0,13.3,0v74.2c0,0,19.2,0,19.2,0v-74.2c0,0,9.3,0,9.3,0l7.7-16.6Z"/>
</svg>